<?xml version="1.0" standalone="no"?>
<!DOCTYPE svg PUBLIC "-//W3C//DTD SVG 20010904//EN"
 "http://www.w3.org/TR/2001/REC-SVG-20010904/DTD/svg10.dtd">
<svg version="1.0" xmlns="http://www.w3.org/2000/svg"
 width="1280.000000pt" height="890.000000pt" viewBox="0 0 1280.000000 890.000000"
 preserveAspectRatio="xMidYMid meet">
<metadata>
Created by potrace 1.15, written by Peter Selinger 2001-2017
</metadata>
<g transform="translate(0.000000,890.000000) scale(0.100000,-0.100000)"
fill="#000000" stroke="none">
<path d="M7025 8883 c-28 -10 -73 -31 -100 -47 -70 -41 -218 -193 -295 -304
-41 -59 -70 -90 -78 -87 -31 12 -235 44 -347 55 -246 25 -583 -14 -825 -94
-269 -88 -490 -225 -690 -425 -261 -261 -435 -553 -725 -1216 -185 -421 -280
-603 -399 -763 -100 -134 -213 -231 -315 -272 -188 -74 -559 -23 -962 133
-258 100 -425 186 -659 342 -288 190 -477 340 -615 487 -123 131 -144 172
-166 330 -25 175 -46 237 -85 252 -25 10 -69 -20 -107 -71 -20 -26 -100 -111
-178 -188 -78 -77 -181 -187 -228 -245 -47 -57 -123 -144 -168 -191 -46 -48
-83 -94 -83 -103 0 -8 10 -25 22 -37 21 -20 30 -21 120 -15 l97 7 113 -107
c203 -191 502 -422 973 -751 275 -192 423 -282 650 -395 432 -216 809 -354
1295 -473 193 -47 518 -109 632 -121 l66 -7 23 -55 c32 -76 106 -179 170 -236
62 -55 189 -119 274 -137 77 -16 220 -15 310 1 l71 12 119 -44 c300 -112 651
-199 940 -233 261 -30 248 -22 105 -61 -300 -82 -543 -181 -657 -268 -122 -93
-323 -321 -495 -561 -373 -524 -611 -1103 -584 -1425 4 -57 14 -91 41 -145 58
-117 228 -291 392 -403 130 -88 251 -133 472 -174 161 -30 532 -33 630 -5 174
50 246 128 319 349 39 118 58 205 137 638 64 350 133 545 229 648 40 43 161
121 171 110 2 -2 -3 -75 -10 -163 -34 -401 -52 -1152 -38 -1596 l8 -255 37
-76 c131 -263 485 -416 913 -394 246 12 467 94 652 241 l83 65 -6 592 c-5 407
-3 640 5 743 12 157 57 475 70 487 3 4 68 -3 142 -17 117 -20 283 -39 424 -48
l39 -2 -2 -95 c-6 -207 -35 -464 -62 -535 -21 -55 -78 -159 -188 -343 -131
-216 -173 -311 -180 -403 -5 -80 15 -127 83 -187 111 -98 376 -193 632 -227
48 -6 52 -9 59 -38 11 -52 99 -129 205 -180 52 -25 116 -53 143 -62 158 -52
387 -95 504 -95 164 0 466 63 667 139 198 75 325 163 380 262 25 47 30 67 33
149 6 139 -21 253 -153 645 -135 402 -149 457 -149 590 0 86 5 114 33 200 84
252 257 592 558 1093 214 357 288 551 326 856 l13 99 99 -93 c267 -249 461
-502 544 -707 63 -156 68 -247 26 -518 -39 -252 -27 -228 -121 -238 -70 -8
-84 -13 -124 -45 -83 -66 -212 -197 -230 -232 -27 -54 -40 -153 -40 -312 0
-135 26 -507 36 -517 12 -13 322 157 484 265 127 84 241 188 260 239 23 61 0
211 -62 406 l-34 104 22 120 c49 264 66 416 61 525 -6 125 -24 186 -107 355
-128 263 -346 555 -678 909 l-140 149 -7 71 c-25 257 -116 631 -212 866 -315
771 -985 1243 -1941 1367 -74 9 -135 22 -137 27 -219 793 -552 1340 -987 1623
-218 141 -450 214 -727 229 -113 6 -117 7 -151 39 -97 89 -228 165 -355 204
-100 31 -244 37 -310 14z"/>
</g>
</svg>
